# xmcd
#
# Track frame offsets:
#	150
#	39932
#	62902
#	81105
#	98465
#	123355
#	149327
#	171660
#	189952
#	209707
#	234620
#	256672
#	279545
#	301967
#
# Disc length: 4417 seconds
#
# Revision: 1
# Processed by: cddbd v1.5.2PL0 Copyright (c) Steve Scherf et al.
# Submitted via: audiograbber 1.83.01
#
DISCID=c3113f0e
DTITLE=Ready For The World - 20th Century Masters - The Millenium Collection - 
DTITLE=The Best Of 
DYEAR=2002
DGENRE=Oldies
TTITLE0=Ceramic Girl  (Extended Mix)
TTITLE1=Slide Over
TTITLE2=Oh Sheila
TTITLE3=Mary Goes 'Round  (Single Version)
TTITLE4=Gently
TTITLE5=Digital Display  (Radio Edit)
TTITLE6=Tonight
TTITLE7=Long Time Coming  (Single Version)
TTITLE8=Long Time Coming - (Single Version)
TTITLE9=My Girly  (Single Version)
TTITLE10=Straight Down To Business  (Single Remix Version)
TTITLE11=Can He Do It (Like This, Can He Do It Like That)  (Extended Mix)
TTITLE12=Melvin Riley_Whose Is It (Chocolate Mix)
TTITLE13=Love You Down
EXTD=
EXTT0=
EXTT1=
EXTT2=
EXTT3=
EXTT4=
EXTT5=
EXTT6=
EXTT7=
EXTT8=
EXTT9=
EXTT10=
EXTT11=
EXTT12=
EXTT13=
PLAYORDER=
